HIERARCHY
ROOT Hips
{
    OFFSET 0.000000 0.000000 0.000000
    CHANNELS 6 Xposition Yposition Zposition Zrotation Xrotation Yrotation
    JOINT Spine
    {
        OFFSET -0.000000 14.517291 0.000000
        CHANNELS 3 Zrotation Xrotation Yrotation
        JOINT Spine1
        {
            OFFSET -0.000000 37.558300 0.000000
            CHANNELS 3 Zrotation Xrotation Yrotation
            JOINT Neck
            {
                OFFSET -0.000000 37.404057 3.400369
                CHANNELS 3 Zrotation Xrotation Yrotation
                JOINT Head
                {
                    OFFSET -0.000000 24.785618 -3.540803
                    CHANNELS 3 Zrotation Xrotation Yrotation
                    End Site
                    {
                        OFFSET -0.000000 35.408028 0.000000
                    }
                }
            }
            JOINT LeftShoulder
            {
                OFFSET 6.992933 33.973492 -0.192664
                CHANNELS 3 Zrotation Xrotation Yrotation
                JOINT LeftArm
                {
                    OFFSET 21.527611 0.000000 0.000000
                    CHANNELS 3 Zrotation Xrotation Yrotation
                    JOINT LeftForeArm
                    {
                        OFFSET 56.353916 0.000000 0.000000
                        CHANNELS 3 Zrotation Xrotation Yrotation
                        JOINT LeftHand
                        {
                            OFFSET 47.774071 0.000000 0.000000
                            CHANNELS 3 Zrotation Xrotation Yrotation
                            End Site
                            {
                                OFFSET 26.556021 0.000000 0.000000
                            }
                        }
                    }
                }
            }
            JOINT RightShoulder
            {
                OFFSET -7.065357 33.973492 -0.192664
                CHANNELS 3 Zrotation Xrotation Yrotation
                JOINT RightArm
                {
                    OFFSET -21.527611 0.000000 0.000000
                    CHANNELS 3 Zrotation Xrotation Yrotation
                    JOINT RightForeArm
                    {
                        OFFSET -56.353916 0.000000 0.000000
                        CHANNELS 3 Zrotation Xrotation Yrotation
                        JOINT RightHand
                        {
                            OFFSET -47.774071 0.000000 0.000000
                            CHANNELS 3 Zrotation Xrotation Yrotation
                            End Site
                            {
                                OFFSET -26.556021 0.000000 0.000000
                            }
                        }
                    }
                }
            }
        }
    }
    JOINT LeftUpLeg
    {
        OFFSET 17.704014 0.000000 0.000000
        CHANNELS 3 Zrotation Xrotation Yrotation
        JOINT LeftLeg
        {
            OFFSET -0.000000 -81.181816 0.000000
            CHANNELS 3 Zrotation Xrotation Yrotation
            JOINT LeftFoot
            {
                OFFSET -0.000000 -62.821102 0.000000
                CHANNELS 3 Zrotation Xrotation Yrotation
                JOINT LeftToeBase
                {
                    OFFSET -0.000000 -11.507608 26.556021
                    CHANNELS 3 Zrotation Xrotation Yrotation
                    End Site
                    {
                        OFFSET -0.000000 0.000000 7.081605
                    }
                }
            }
        }
    }
    JOINT RightUpLeg
    {
        OFFSET -17.704014 0.000000 0.000000
        CHANNELS 3 Zrotation Xrotation Yrotation
        JOINT RightLeg
        {
            OFFSET -0.000000 -81.181816 0.000000
            CHANNELS 3 Zrotation Xrotation Yrotation
            JOINT RightFoot
            {
                OFFSET -0.000000 -62.821102 0.000000
                CHANNELS 3 Zrotation Xrotation Yrotation
                JOINT RightToeBase
                {
                    OFFSET -0.000000 -11.507608 26.556021
                    CHANNELS 3 Zrotation Xrotation Yrotation
                    End Site
                    {
                        OFFSET -0.000000 0.000000 7.081605
                    }
                }
            }
        }
    }
}
MOTION
Frames:    5
Frame Time:    0.008333
21.050938    146.326996    48.734547    3.190818    2.389031    -57.321507    0.319685    -1.816827    -1.013552    1.556084    -2.188323    -0.311720    22.155029    5.860403    20.081362    -17.073761    7.177696    17.475100    13.018068    2.174631    -14.479690    -4.773159    -6.726781    -18.520082    -3.413596    -2.082885    -84.530640    -2.510731    -4.624169    -25.087223    -10.931445    -1.798256    -12.964208    27.278910    -27.284416    27.729256    16.291235    -36.702995    110.244736    43.575718    -37.501228    52.462475    36.031250    -22.643280    26.606178    -29.316708    41.524902    4.245424    -1.017233    -13.445496    43.640701    0.000000    0.000000    0.000000    -29.323988    -7.538059    -19.061981    3.942992    32.704288    -6.985009    20.031569    -12.957393    7.155068    0.000000    0.000000    0.000000    
21.092993    146.343719    48.704842    3.175436    2.361528    -57.315716    0.346143    -1.801721    -0.943976    1.491986    -2.149924    -0.290362    22.080868    5.817192    20.077774    -16.982517    7.133897    17.470221    13.011002    2.125532    -14.453571    -4.780303    -6.771774    -18.633541    -3.436384    -2.034691    -84.532562    -2.478957    -4.602836    -25.138681    -10.792624    -1.787504    -12.735958    27.762367    -27.217184    28.747992    16.373772    -36.909924    110.311829    43.542465    -37.812637    52.543365    35.992004    -22.626101    26.557554    -29.306511    41.469528    4.253387    -1.017919    -13.404832    43.641407    0.000000    0.000000    0.000000    -29.335207    -7.527910    -19.073490    3.932275    32.694077    -6.982473    20.025661    -12.927941    7.162969    0.000000    0.000000    0.000000    
21.133163    146.357742    48.670845    3.152805    2.338266    -57.307232    0.362202    -1.784721    -0.876846    1.432314    -2.111812    -0.269725    22.084854    5.784850    20.086655    -16.966005    7.116134    17.471113    13.033869    2.086425    -14.463261    -4.809325    -6.865870    -18.713245    -3.487916    -1.946119    -84.545830    -2.468728    -4.562624    -25.202833    -10.627454    -1.847997    -12.466293    28.164667    -27.073278    29.662767    16.358374    -37.179413    110.248657    43.694977    -37.898663    52.706715    35.959171    -22.611835    26.535553    -29.255550    41.435505    4.201851    -1.019610    -13.358500    43.651505    0.000000    0.000000    0.000000    -29.335781    -7.515705    -19.089108    3.916132    32.692074    -6.978916    20.012878    -12.913906    7.169828    0.000000    0.000000    0.000000    
21.172297    146.370453    48.634563    3.132785    2.319876    -57.307419    0.371030    -1.756098    -0.796195    1.377864    -2.106153    -0.243871    22.145594    5.750996    20.098373    -17.003130    7.144124    17.471733    13.076691    2.065569    -14.479995    -4.869215    -6.975667    -18.804796    -3.550071    -1.849657    -84.581787    -2.473356    -4.525269    -25.131039    -10.431572    -1.914274    -12.190860    28.538996    -26.933815    30.580925    16.381638    -37.417423    110.173805    43.913136    -37.948059    52.911396    35.938171    -22.597868    26.516626    -29.227377    41.403950    4.192779    -1.039881    -13.332035    43.647724    0.000000    0.000000    0.000000    -29.330563    -7.512770    -19.085033    3.902406    32.686836    -6.979733    20.007372    -12.895496    7.175863    0.000000    0.000000    0.000000    
21.214787    146.381210    48.592876    3.116995    2.313122    -57.313816    0.403683    -1.743301    -0.730311    1.303553    -2.104573    -0.223506    22.203253    5.745502    20.118410    -17.050539    7.176005    17.487080    13.130085    2.085025    -14.459028    -4.923060    -7.074959    -18.917253    -3.610658    -1.805272    -84.618256    -2.479288    -4.541050    -24.940992    -10.247264    -1.931801    -11.918530    28.996325    -26.883493    31.574293    16.430399    -37.529488    110.070549    44.007778    -37.985748    53.031815    35.928158    -22.591085    26.503302    -29.195375    41.367859    4.175918    -1.048852    -13.302512    43.660984    0.000000    0.000000    0.000000    -29.317043    -7.525814    -19.072647    3.886930    32.685162    -6.953786    19.994217    -12.890754    7.164013    0.000000    0.000000    0.000000    
